<svg fill="#000000" xmlns="http://www.w3.org/2000/svg"  viewBox="0 0 64 64" width="64px" height="64px"><path d="M 26.75 1 C 26.48 1 26.209219 1.0599219 25.949219 1.1699219 L 5.1796875 8.9804688 C 4.5196875 9.2704687 4.0602344 9.8991406 3.9902344 10.619141 L 1.4394531 44.640625 L 1.0996094 49.230469 L 1.0292969 50.160156 C 1.0092969 50.280156 1 50.399531 1 50.519531 C 1.01 51.199531 1.3602344 51.850937 1.9902344 52.210938 L 20.529297 62.730469 C 20.839297 62.910469 21.189297 63 21.529297 63 C 22.129297 63 22.709609 62.740234 23.099609 62.240234 L 25.880859 59.150391 C 25.940859 59.080391 25.989297 58.999922 26.029297 58.919922 L 43.400391 62.929688 C 43.570391 62.979687 43.749922 63 43.919922 63 C 44.139922 63 44.360312 62.960625 44.570312 62.890625 L 61.650391 57.699219 C 62.640391 57.369219 63.199688 56.310547 62.929688 55.310547 L 58.089844 35.490234 C 58.319844 35.330234 58.519922 35.119141 58.669922 34.869141 L 62.710938 27.339844 C 63.210938 26.499844 63.019531 25.409063 62.269531 24.789062 L 52 16 L 52 14 C 52 12.9 51.1 12 50 12 L 49.859375 12 L 48.650391 3.7207031 C 48.500391 2.6707031 47.600156 2.0097656 46.660156 2.0097656 C 46.220156 2.0097656 45.760859 2.1602344 45.380859 2.4902344 L 38.419922 8.3007812 L 27.859375 1.3398438 C 27.529375 1.1098438 27.14 1 26.75 1 z M 26.75 3 L 36.820312 9.640625 C 36.820312 9.640625 34.01 11.99 34 12 L 14 12 C 12.9 12 12 12.9 12 14 L 12 33.019531 C 11.96 33.069531 3.3203125 46.320312 3.3203125 46.320312 L 5.9804688 10.820312 L 26.75 3 z M 46.669922 4.0097656 L 47.839844 12 L 39.240234 12 L 37.119141 12 L 40.169922 9.4492188 L 46.669922 4.0097656 z M 14 14 L 31.910156 14 L 34.810547 14 L 37.480469 14 L 47.230469 14 L 49.480469 14 L 50 14 L 50 15.669922 L 50 30.460938 L 49.859375 30.550781 L 50 32.119141 L 50 32.820312 L 50 50 L 30.699219 50 L 28.439453 50 L 22.570312 50 L 19.970703 50 L 14 50 L 14 40.669922 L 14 37.640625 L 14 33.849609 L 14 31.080078 L 14 14 z M 18 17 C 17.448 17 17 17.448 17 18 L 17 33 C 17 33.553 17.448 34 18 34 C 18.552 34 19 33.553 19 33 L 19 28 L 24 28 C 26.206 28 28 26.206 28 24 L 28 21 C 28 18.794 26.206 17 24 17 L 18 17 z M 35 17 C 32.794 17 31 18.794 31 21 L 31 30 C 31 32.206 32.794 34 35 34 L 38 34 C 40.206 34 42 32.206 42 30 L 42 29 C 42 28.448 41.553 28 41 28 C 40.447 28 40 28.448 40 29 L 40 30 C 40 31.103 39.103 32 38 32 L 35 32 C 33.897 32 33 31.103 33 30 L 33 21 C 33 19.897 33.897 19 35 19 L 38 19 C 39.103 19 40 19.897 40 21 L 40 22 C 40 22.552 40.447 23 41 23 C 41.553 23 42 22.552 42 22 L 42 21 C 42 18.794 40.206 17 38 17 L 35 17 z M 52 18.630859 L 60.990234 26.320312 L 57.460938 32.900391 L 56.599609 29.380859 C 56.359609 28.470859 55.539922 27.900391 54.669922 27.900391 C 54.369922 27.900391 54.059531 27.949609 53.769531 28.099609 L 52 29.210938 L 52 18.630859 z M 19 19 L 24 19 C 25.103 19 26 19.897 26 21 L 26 24 C 26 25.103 25.103 26 24 26 L 19 26 L 19 19 z M 54.669922 29.900391 L 61 55.810547 L 43.919922 61 L 20.019531 55.480469 L 20.019531 55.478516 L 20.019531 55.470703 L 21.119141 52 L 27.390625 52 L 29.650391 52 L 50 52 C 51.1 52 52 51.1 52 50 L 52 35.25 L 52 31.570312 L 54.669922 29.900391 z M 12 36.660156 L 12 50 C 12 51.1 12.9 52 14 52 L 19.210938 52 L 18.050781 55.080078 C 17.840781 56.120078 18.470234 57.130156 19.490234 57.410156 L 23.849609 58.419922 L 21.509766 60.990234 L 3.0097656 50.470703 L 12 36.660156 z M 18 43 C 17.449 43 17 43.449 17 44 L 17 46 C 17 46.551 17.449 47 18 47 C 18.551 47 19 46.551 19 46 L 19 44 C 19 43.449 18.551 43 18 43 z M 23 43 C 22.449 43 22 43.449 22 44 L 22 46 C 22 46.551 22.449 47 23 47 C 23.551 47 24 46.551 24 46 L 24 44 C 24 43.449 23.551 43 23 43 z M 28 43 C 27.449 43 27 43.449 27 44 L 27 46 C 27 46.551 27.449 47 28 47 C 28.551 47 29 46.551 29 46 L 29 44 C 29 43.449 28.551 43 28 43 z M 33 43 C 32.449 43 32 43.449 32 44 L 32 46 C 32 46.551 32.449 47 33 47 C 33.551 47 34 46.551 34 46 L 34 44 C 34 43.449 33.551 43 33 43 z M 57.072266 52.916016 C 56.943016 52.902156 56.810234 52.913125 56.677734 52.953125 L 54.697266 53.552734 C 54.169266 53.712734 53.869297 54.271781 54.029297 54.800781 C 54.160297 55.232781 54.556328 55.509766 54.986328 55.509766 C 55.082328 55.509766 55.181344 55.495797 55.277344 55.466797 L 57.257812 54.867188 C 57.785812 54.707188 58.083828 54.148141 57.923828 53.619141 C 57.803828 53.223891 57.460016 52.957594 57.072266 52.916016 z M 51.074219 54.732422 C 50.944969 54.718656 50.812188 54.729031 50.679688 54.769531 L 43.710938 56.880859 C 43.182938 57.040859 42.882969 57.600906 43.042969 58.128906 C 43.173969 58.560906 43.57 58.837891 44 58.837891 C 44.096 58.837891 44.192062 58.823922 44.289062 58.794922 L 51.259766 56.683594 C 51.787766 56.523594 52.085781 55.9655 51.925781 55.4375 C 51.805781 55.04225 51.461969 54.773719 51.074219 54.732422 z"/></svg>